<?xml version="1.0" encoding="UTF-8"?>
<svg xmlns="http://www.w3.org/2000/svg" viewBox="0 0 256 256">
<path d="M 141.37891 0 L 99.154297 24.378906 C 76.16626 37.651056 68.261054 67.148694 81.533203 90.136719 L 97.773438 80.759766 C 89.670506 66.730578 94.498707 48.7197 108.5293 40.619141 L 152.14062 15.441406 C 158.93486 11.518752 164.39869 6.1710677 168.40039 0 L 141.37891 0 z M 183.41406 47.757812 C 180.83625 47.79683 178.25437 47.976039 175.67383 48.294922 C 166.16029 49.478483 157.10476 52.520129 148.75 57.34375 L 35.761719 122.57812 C 27.409335 127.40037 20.24245 133.72039 14.466797 141.36719 C 8.8935158 148.74529 4.8487406 157.02761 2.4492188 165.99023 C 0.04595403 174.95186 -0.59025241 184.1466 0.54492188 193.32422 C 1.7257514 202.83301 4.7683798 211.89455 9.5878906 220.24219 C 14.412882 228.59932 20.729724 235.75891 28.378906 241.5332 C 35.757013 247.10649 44.037174 251.1461 53.003906 253.55273 C 61.964155 255.95361 71.159665 256.59067 80.335938 255.45312 C 89.845726 254.26855 98.903471 251.23436 107.25586 246.41211 C 117.01771 240.77611 125.39918 232.82525 131.49219 223.41016 C 135.58607 217.09183 138.67306 210.09014 140.61133 202.78906 L 165.78711 188.25391 C 173.08155 190.22448 180.69062 191.05285 188.20703 190.66797 C 199.40825 190.09506 210.48313 186.81296 220.24023 181.17969 C 228.59499 176.35607 235.75517 170.03294 241.5332 162.38477 C 247.10548 155.0104 251.14793 146.72784 253.54883 137.76758 C 255.94936 128.80121 256.59305 119.60655 255.45312 110.43164 C 254.2723 100.92285 251.22987 91.868438 246.40625 83.513672 C 241.58399 75.161287 235.26833 67.996945 227.61914 62.222656 C 220.2519 56.646271 211.9679 52.603064 203.00391 50.201172 C 197.40289 48.699133 191.71159 47.886479 185.99023 47.765625 C 185.13203 47.747497 184.27333 47.744807 183.41406 47.757812 z M 183.88281 66.511719 C 184.46705 66.505367 185.05165 66.508438 185.63477 66.521484 C 203.44616 66.919981 220.624 76.334371 230.18164 92.888672 C 244.74228 118.1194 236.10146 150.37269 210.87109 164.93945 C 195.93172 173.5647 178.51862 174.04774 163.7793 167.76367 L 123.87305 190.80273 C 121.94557 206.70939 112.82261 221.54721 97.880859 230.17383 C 72.655238 244.73785 40.402696 236.09757 25.835938 210.86719 C 11.271919 185.64159 19.915425 153.38296 45.138672 138.82031 L 158.12695 73.585938 C 166.25783 68.891571 175.11929 66.606998 183.88281 66.511719 z M 187.32422 84.785156 A 10.55 10.55 0 0 0 176.77539 95.335938 A 10.55 10.55 0 0 0 187.32422 105.88477 A 10.55 10.55 0 0 0 197.875 95.335938 A 10.55 10.55 0 0 0 187.32422 84.785156 z M 166.23242 105.87891 A 10.55 10.55 0 0 0 155.68359 116.42969 A 10.55 10.55 0 0 0 166.23242 126.98047 A 10.55 10.55 0 0 0 176.7832 116.42969 A 10.55 10.55 0 0 0 166.23242 105.87891 z M 208.42578 105.87891 A 10.55 10.55 0 0 0 197.875 116.42969 A 10.55 10.55 0 0 0 208.42578 126.98047 A 10.55 10.55 0 0 0 218.97461 116.42969 A 10.55 10.55 0 0 0 208.42578 105.87891 z M 187.32422 126.97656 A 10.55 10.55 0 0 0 176.77539 137.52734 A 10.55 10.55 0 0 0 187.32422 148.07617 A 10.55 10.55 0 0 0 197.875 137.52734 A 10.55 10.55 0 0 0 187.32422 126.97656 z M 63.261719 153.76172 C 62.2485 153.68957 61.202795 153.90949 60.257812 154.45508 L 51.123047 159.72852 C 48.600722 161.18478 47.735141 164.41128 49.191406 166.93359 L 57.101562 180.63281 L 43.400391 188.54297 C 40.878067 189.99923 40.015021 193.22335 41.472656 195.74805 L 46.748047 204.88281 C 48.204312 207.40515 51.43122 208.27326 53.951172 206.81836 L 67.652344 198.9082 L 75.560547 212.60547 C 77.018182 215.13016 80.243301 215.99337 82.765625 214.53711 L 91.902344 209.26172 C 94.424669 207.80546 95.289083 204.58567 93.830078 202.05859 L 85.921875 188.36133 L 99.625 180.44922 C 102.14732 178.99295 103.01037 175.76689 101.55273 173.24219 L 96.279297 164.10547 C 94.821663 161.58077 91.592218 160.71893 89.072266 162.17383 L 75.369141 170.08398 L 67.460938 156.38672 C 66.551627 154.81175 64.950416 153.88196 63.261719 153.76172 Z"/>
</svg>